<svg xmlns="http://www.w3.org/2000/svg" xmlns:xlink="http://www.w3.org/1999/xlink" width="500" zoomAndPan="magnify" viewBox="0 0 375 374.999991" height="500" preserveAspectRatio="xMidYMid meet" version="1.2"><defs><clipPath id="1b334b1547"><path d="M 61.445312 84 L 201 84 L 201 213 L 61.445312 213 Z M 61.445312 84 "/></clipPath><clipPath id="db14af6212"><path d="M 61.445312 80 L 214 80 L 214 185 L 61.445312 185 Z M 61.445312 80 "/></clipPath><clipPath id="aca9545343"><path d="M 61.445312 74 L 227 74 L 227 155 L 61.445312 155 Z M 61.445312 74 "/></clipPath><clipPath id="17675a97be"><path d="M 61.445312 65 L 238 65 L 238 126 L 61.445312 126 Z M 61.445312 65 "/></clipPath><clipPath id="2cc5f3112f"><path d="M 61.445312 55 L 247 55 L 247 114 L 61.445312 114 Z M 61.445312 55 "/></clipPath><clipPath id="44c85dae12"><path d="M 61.445312 44 L 255 44 L 255 125 L 61.445312 125 Z M 61.445312 44 "/></clipPath><clipPath id="2bff3e7117"><path d="M 61.445312 37.5 L 261 37.5 L 261 137 L 61.445312 137 Z M 61.445312 37.5 "/></clipPath><clipPath id="43f1573809"><path d="M 84 37.5 L 264 37.5 L 264 150 L 84 150 Z M 84 37.5 "/></clipPath><clipPath id="77f56f5eb3"><path d="M 110 37.5 L 265 37.5 L 265 164 L 110 164 Z M 110 37.5 "/></clipPath><clipPath id="5833ec41d7"><path d="M 137 37.5 L 267 37.5 L 267 177 L 137 177 Z M 137 37.5 "/></clipPath><clipPath id="feae2b69b4"><path d="M 166 37.5 L 271 37.5 L 271 190 L 166 190 Z M 166 37.5 "/></clipPath><clipPath id="f9714283ad"><path d="M 195 37.5 L 277 37.5 L 277 202 L 195 202 Z M 195 37.5 "/></clipPath><clipPath id="9cf89dea02"><path d="M 225 37.5 L 285 37.5 L 285 213 L 225 213 Z M 225 37.5 "/></clipPath><clipPath id="6cc599688d"><path d="M 237 37.5 L 295 37.5 L 295 223 L 237 223 Z M 237 37.5 "/></clipPath><clipPath id="f6b2ea5df5"><path d="M 226 37.5 L 307 37.5 L 307 230 L 226 230 Z M 226 37.5 "/></clipPath><clipPath id="dbe1d0fc14"><path d="M 213 37.5 L 314.195312 37.5 L 314.195312 236 L 213 236 Z M 213 37.5 "/></clipPath><clipPath id="82109af0d9"><path d="M 200 59 L 314.195312 59 L 314.195312 240 L 200 240 Z M 200 59 "/></clipPath><clipPath id="39f2888c3d"><path d="M 187 85 L 314.195312 85 L 314.195312 241 L 187 241 Z M 187 85 "/></clipPath><clipPath id="87647be34f"><path d="M 174 113 L 314.195312 113 L 314.195312 242 L 174 242 Z M 174 113 "/></clipPath><clipPath id="595e203026"><path d="M 161 141 L 314.195312 141 L 314.195312 246 L 161 246 Z M 161 141 "/></clipPath><clipPath id="16a00d7142"><path d="M 148 171 L 314.195312 171 L 314.195312 252 L 148 252 Z M 148 171 "/></clipPath><clipPath id="54a49fc234"><path d="M 137 200 L 314.195312 200 L 314.195312 261 L 137 261 Z M 137 200 "/></clipPath><clipPath id="6354724080"><path d="M 128 212 L 314.195312 212 L 314.195312 271 L 128 271 Z M 128 212 "/></clipPath><clipPath id="4d589855ec"><path d="M 120 201 L 314.195312 201 L 314.195312 282 L 120 282 Z M 120 201 "/></clipPath><clipPath id="aea49a1763"><path d="M 114 189 L 314.195312 189 L 314.195312 286.5 L 114 286.5 Z M 114 189 "/></clipPath><clipPath id="808ca2bb70"><path d="M 111 176 L 291 176 L 291 286.5 L 111 286.5 Z M 111 176 "/></clipPath><clipPath id="c3cd7e60bf"><path d="M 110 163 L 265 163 L 265 286.5 L 110 286.5 Z M 110 163 "/></clipPath><clipPath id="990e6a345f"><path d="M 108 149 L 238 149 L 238 286.5 L 108 286.5 Z M 108 149 "/></clipPath><clipPath id="d1759b5eb9"><path d="M 104 136 L 209 136 L 209 286.5 L 104 286.5 Z M 104 136 "/></clipPath><clipPath id="903b293df8"><path d="M 98 124 L 180 124 L 180 286.5 L 98 286.5 Z M 98 124 "/></clipPath><clipPath id="14d236aada"><path d="M 90 113 L 150 113 L 150 286.5 L 90 286.5 Z M 90 113 "/></clipPath><clipPath id="ac8d43240e"><path d="M 80 103 L 138 103 L 138 286.5 L 80 286.5 Z M 80 103 "/></clipPath><clipPath id="4121a6b8f1"><path d="M 69 96 L 149 96 L 149 286.5 L 69 286.5 Z M 69 96 "/></clipPath><clipPath id="d4003dc495"><path d="M 61.445312 90 L 162 90 L 162 286.5 L 61.445312 286.5 Z M 61.445312 90 "/></clipPath><clipPath id="5bd63a04c4"><path d="M 61.445312 86 L 175 86 L 175 267 L 61.445312 267 Z M 61.445312 86 "/></clipPath><clipPath id="e19601e190"><path d="M 61.445312 85 L 188 85 L 188 241 L 61.445312 241 Z M 61.445312 85 "/></clipPath></defs><g id="0038d14554"><g style="fill:#000000;fill-opacity:1;"><g transform="translate(58.113624, 317.632144)"><path style="stroke:none" d="M 9.234375 -14.921875 C 8.328125 -14.921875 7.515625 -14.765625 6.796875 -14.453125 C 6.078125 -14.140625 5.460938 -13.691406 4.953125 -13.109375 C 4.453125 -12.523438 4.066406 -11.816406 3.796875 -10.984375 C 3.535156 -10.160156 3.40625 -9.226562 3.40625 -8.1875 C 3.40625 -6.820312 3.617188 -5.628906 4.046875 -4.609375 C 4.472656 -3.597656 5.113281 -2.816406 5.96875 -2.265625 C 6.820312 -1.710938 7.890625 -1.4375 9.171875 -1.4375 C 9.910156 -1.4375 10.597656 -1.5 11.234375 -1.625 C 11.878906 -1.75 12.507812 -1.90625 13.125 -2.09375 L 13.125 -0.4375 C 12.53125 -0.207031 11.90625 -0.0390625 11.25 0.0625 C 10.59375 0.164062 9.8125 0.21875 8.90625 0.21875 C 7.238281 0.21875 5.847656 -0.125 4.734375 -0.8125 C 3.617188 -1.5 2.785156 -2.472656 2.234375 -3.734375 C 1.679688 -4.992188 1.40625 -6.484375 1.40625 -8.203125 C 1.40625 -9.441406 1.578125 -10.570312 1.921875 -11.59375 C 2.265625 -12.625 2.769531 -13.507812 3.4375 -14.25 C 4.101562 -15 4.921875 -15.578125 5.890625 -15.984375 C 6.867188 -16.390625 7.988281 -16.59375 9.25 -16.59375 C 10.082031 -16.59375 10.878906 -16.507812 11.640625 -16.34375 C 12.410156 -16.1875 13.109375 -15.953125 13.734375 -15.640625 L 12.96875 -14.03125 C 12.445312 -14.269531 11.875 -14.476562 11.25 -14.65625 C 10.625 -14.832031 9.953125 -14.921875 9.234375 -14.921875 Z M 9.234375 -14.921875 "/></g></g><g style="fill:#000000;fill-opacity:1;"><g transform="translate(76.128106, 317.632144)"><path style="stroke:none" d="M 16.4375 -8.203125 C 16.4375 -6.941406 16.273438 -5.796875 15.953125 -4.765625 C 15.628906 -3.734375 15.148438 -2.84375 14.515625 -2.09375 C 13.890625 -1.351562 13.109375 -0.78125 12.171875 -0.375 C 11.242188 0.0195312 10.164062 0.21875 8.9375 0.21875 C 7.664062 0.21875 6.554688 0.0195312 5.609375 -0.375 C 4.671875 -0.78125 3.890625 -1.351562 3.265625 -2.09375 C 2.640625 -2.84375 2.171875 -3.734375 1.859375 -4.765625 C 1.554688 -5.804688 1.40625 -6.957031 1.40625 -8.21875 C 1.40625 -9.894531 1.679688 -11.363281 2.234375 -12.625 C 2.785156 -13.882812 3.617188 -14.863281 4.734375 -15.5625 C 5.859375 -16.269531 7.269531 -16.625 8.96875 -16.625 C 10.582031 -16.625 11.941406 -16.273438 13.046875 -15.578125 C 14.160156 -14.878906 15.003906 -13.898438 15.578125 -12.640625 C 16.148438 -11.390625 16.4375 -9.910156 16.4375 -8.203125 Z M 3.40625 -8.203125 C 3.40625 -6.816406 3.601562 -5.613281 4 -4.59375 C 4.394531 -3.582031 5 -2.800781 5.8125 -2.25 C 6.632812 -1.695312 7.675781 -1.421875 8.9375 -1.421875 C 10.195312 -1.421875 11.234375 -1.695312 12.046875 -2.25 C 12.859375 -2.800781 13.457031 -3.582031 13.84375 -4.59375 C 14.226562 -5.613281 14.421875 -6.816406 14.421875 -8.203125 C 14.421875 -10.316406 13.976562 -11.96875 13.09375 -13.15625 C 12.21875 -14.34375 10.84375 -14.9375 8.96875 -14.9375 C 7.695312 -14.9375 6.648438 -14.664062 5.828125 -14.125 C 5.003906 -13.582031 4.394531 -12.804688 4 -11.796875 C 3.601562 -10.796875 3.40625 -9.597656 3.40625 -8.203125 Z M 3.40625 -8.203125 "/></g></g><g style="fill:#000000;fill-opacity:1;"><g transform="translate(97.533439, 317.632144)"><path style="stroke:none" d="M 6.65625 -16.359375 C 8 -16.359375 9.109375 -16.191406 9.984375 -15.859375 C 10.859375 -15.523438 11.515625 -15.019531 11.953125 -14.34375 C 12.390625 -13.664062 12.609375 -12.800781 12.609375 -11.75 C 12.609375 -10.882812 12.445312 -10.160156 12.125 -9.578125 C 11.8125 -9.003906 11.398438 -8.535156 10.890625 -8.171875 C 10.390625 -7.816406 9.851562 -7.546875 9.28125 -7.359375 L 13.765625 0 L 11.546875 0 L 7.546875 -6.828125 L 4.140625 -6.828125 L 4.140625 0 L 2.234375 0 L 2.234375 -16.359375 Z M 6.546875 -14.71875 L 4.140625 -14.71875 L 4.140625 -8.4375 L 6.734375 -8.4375 C 8.066406 -8.4375 9.046875 -8.707031 9.671875 -9.25 C 10.304688 -9.800781 10.625 -10.601562 10.625 -11.65625 C 10.625 -12.769531 10.289062 -13.554688 9.625 -14.015625 C 8.957031 -14.484375 7.929688 -14.71875 6.546875 -14.71875 Z M 6.546875 -14.71875 "/></g></g><g style="fill:#000000;fill-opacity:1;"><g transform="translate(115.256957, 317.632144)"><path style="stroke:none" d="M 6.515625 -16.359375 C 8.628906 -16.359375 10.171875 -15.945312 11.140625 -15.125 C 12.117188 -14.300781 12.609375 -13.117188 12.609375 -11.578125 C 12.609375 -10.890625 12.492188 -10.234375 12.265625 -9.609375 C 12.035156 -8.984375 11.664062 -8.429688 11.15625 -7.953125 C 10.644531 -7.484375 9.976562 -7.113281 9.15625 -6.84375 C 8.332031 -6.570312 7.328125 -6.4375 6.140625 -6.4375 L 4.140625 -6.4375 L 4.140625 0 L 2.234375 0 L 2.234375 -16.359375 Z M 6.328125 -14.734375 L 4.140625 -14.734375 L 4.140625 -8.0625 L 5.921875 -8.0625 C 6.960938 -8.0625 7.832031 -8.171875 8.53125 -8.390625 C 9.226562 -8.617188 9.75 -8.984375 10.09375 -9.484375 C 10.445312 -9.992188 10.625 -10.664062 10.625 -11.5 C 10.625 -12.59375 10.273438 -13.40625 9.578125 -13.9375 C 8.890625 -14.46875 7.804688 -14.734375 6.328125 -14.734375 Z M 6.328125 -14.734375 "/></g></g><g style="fill:#000000;fill-opacity:1;"><g transform="translate(132.622367, 317.632144)"><path style="stroke:none" d="M 16.4375 -8.203125 C 16.4375 -6.941406 16.273438 -5.796875 15.953125 -4.765625 C 15.628906 -3.734375 15.148438 -2.84375 14.515625 -2.09375 C 13.890625 -1.351562 13.109375 -0.78125 12.171875 -0.375 C 11.242188 0.0195312 10.164062 0.21875 8.9375 0.21875 C 7.664062 0.21875 6.554688 0.0195312 5.609375 -0.375 C 4.671875 -0.78125 3.890625 -1.351562 3.265625 -2.09375 C 2.640625 -2.84375 2.171875 -3.734375 1.859375 -4.765625 C 1.554688 -5.804688 1.40625 -6.957031 1.40625 -8.21875 C 1.40625 -9.894531 1.679688 -11.363281 2.234375 -12.625 C 2.785156 -13.882812 3.617188 -14.863281 4.734375 -15.5625 C 5.859375 -16.269531 7.269531 -16.625 8.96875 -16.625 C 10.582031 -16.625 11.941406 -16.273438 13.046875 -15.578125 C 14.160156 -14.878906 15.003906 -13.898438 15.578125 -12.640625 C 16.148438 -11.390625 16.4375 -9.910156 16.4375 -8.203125 Z M 3.40625 -8.203125 C 3.40625 -6.816406 3.601562 -5.613281 4 -4.59375 C 4.394531 -3.582031 5 -2.800781 5.8125 -2.25 C 6.632812 -1.695312 7.675781 -1.421875 8.9375 -1.421875 C 10.195312 -1.421875 11.234375 -1.695312 12.046875 -2.25 C 12.859375 -2.800781 13.457031 -3.582031 13.84375 -4.59375 C 14.226562 -5.613281 14.421875 -6.816406 14.421875 -8.203125 C 14.421875 -10.316406 13.976562 -11.96875 13.09375 -13.15625 C 12.21875 -14.34375 10.84375 -14.9375 8.96875 -14.9375 C 7.695312 -14.9375 6.648438 -14.664062 5.828125 -14.125 C 5.003906 -13.582031 4.394531 -12.804688 4 -11.796875 C 3.601562 -10.796875 3.40625 -9.597656 3.40625 -8.203125 Z M 3.40625 -8.203125 "/></g></g><g style="fill:#000000;fill-opacity:1;"><g transform="translate(154.027699, 317.632144)"><path style="stroke:none" d="M 6.65625 -16.359375 C 8 -16.359375 9.109375 -16.191406 9.984375 -15.859375 C 10.859375 -15.523438 11.515625 -15.019531 11.953125 -14.34375 C 12.390625 -13.664062 12.609375 -12.800781 12.609375 -11.75 C 12.609375 -10.882812 12.445312 -10.160156 12.125 -9.578125 C 11.8125 -9.003906 11.398438 -8.535156 10.890625 -8.171875 C 10.390625 -7.816406 9.851562 -7.546875 9.28125 -7.359375 L 13.765625 0 L 11.546875 0 L 7.546875 -6.828125 L 4.140625 -6.828125 L 4.140625 0 L 2.234375 0 L 2.234375 -16.359375 Z M 6.546875 -14.71875 L 4.140625 -14.71875 L 4.140625 -8.4375 L 6.734375 -8.4375 C 8.066406 -8.4375 9.046875 -8.707031 9.671875 -9.25 C 10.304688 -9.800781 10.625 -10.601562 10.625 -11.65625 C 10.625 -12.769531 10.289062 -13.554688 9.625 -14.015625 C 8.957031 -14.484375 7.929688 -14.71875 6.546875 -14.71875 Z M 6.546875 -14.71875 "/></g></g><g style="fill:#000000;fill-opacity:1;"><g transform="translate(171.751217, 317.632144)"><path style="stroke:none" d="M 12.5 0 L 10.484375 -5.1875 L 3.921875 -5.1875 L 1.921875 0 L 0 0 L 6.40625 -16.4375 L 8.109375 -16.4375 L 14.46875 0 Z M 9.921875 -6.890625 L 8 -12.046875 C 7.957031 -12.179688 7.882812 -12.398438 7.78125 -12.703125 C 7.6875 -13.003906 7.582031 -13.316406 7.46875 -13.640625 C 7.363281 -13.972656 7.28125 -14.242188 7.21875 -14.453125 C 7.144531 -14.140625 7.0625 -13.832031 6.96875 -13.53125 C 6.882812 -13.226562 6.800781 -12.945312 6.71875 -12.6875 C 6.644531 -12.4375 6.578125 -12.222656 6.515625 -12.046875 L 4.5625 -6.890625 Z M 9.921875 -6.890625 "/></g></g><g style="fill:#000000;fill-opacity:1;"><g transform="translate(189.821661, 317.632144)"><path style="stroke:none" d="M 7.265625 0 L 5.34375 0 L 5.34375 -14.6875 L 0.203125 -14.6875 L 0.203125 -16.359375 L 12.390625 -16.359375 L 12.390625 -14.6875 L 7.265625 -14.6875 Z M 7.265625 0 "/></g></g><g style="fill:#000000;fill-opacity:1;"><g transform="translate(206.023217, 317.632144)"><path style="stroke:none" d="M 11.34375 0 L 2.234375 0 L 2.234375 -16.359375 L 11.34375 -16.359375 L 11.34375 -14.6875 L 4.140625 -14.6875 L 4.140625 -9.390625 L 10.9375 -9.390625 L 10.9375 -7.734375 L 4.140625 -7.734375 L 4.140625 -1.671875 L 11.34375 -1.671875 Z M 11.34375 0 "/></g></g><g style="fill:#000000;fill-opacity:1;"><g transform="translate(222.336682, 317.632144)"><path style="stroke:none" d=""/></g></g><g style="fill:#000000;fill-opacity:1;"><g transform="translate(231.86846, 317.632144)"><path style="stroke:none" d="M 2.234375 0 L 2.234375 -16.359375 L 4.140625 -16.359375 L 4.140625 0 Z M 2.234375 0 "/></g></g><g style="fill:#000000;fill-opacity:1;"><g transform="translate(241.847874, 317.632144)"><path style="stroke:none" d="M 9.4375 0 L 3.9375 -14.484375 L 3.84375 -14.484375 C 3.875 -14.179688 3.898438 -13.804688 3.921875 -13.359375 C 3.953125 -12.921875 3.972656 -12.441406 3.984375 -11.921875 C 3.992188 -11.398438 4 -10.875 4 -10.34375 L 4 0 L 2.234375 0 L 2.234375 -16.359375 L 5.0625 -16.359375 L 10.234375 -2.75 L 10.3125 -2.75 L 15.578125 -16.359375 L 18.375 -16.359375 L 18.375 0 L 16.5 0 L 16.5 -10.46875 C 16.5 -10.957031 16.503906 -11.445312 16.515625 -11.9375 C 16.535156 -12.425781 16.554688 -12.890625 16.578125 -13.328125 C 16.597656 -13.765625 16.617188 -14.140625 16.640625 -14.453125 L 16.546875 -14.453125 L 10.984375 0 Z M 9.4375 0 "/></g></g><g style="fill:#000000;fill-opacity:1;"><g transform="translate(266.039735, 317.632144)"><path style="stroke:none" d="M 12.5 0 L 10.484375 -5.1875 L 3.921875 -5.1875 L 1.921875 0 L 0 0 L 6.40625 -16.4375 L 8.109375 -16.4375 L 14.46875 0 Z M 9.921875 -6.890625 L 8 -12.046875 C 7.957031 -12.179688 7.882812 -12.398438 7.78125 -12.703125 C 7.6875 -13.003906 7.582031 -13.316406 7.46875 -13.640625 C 7.363281 -13.972656 7.28125 -14.242188 7.21875 -14.453125 C 7.144531 -14.140625 7.0625 -13.832031 6.96875 -13.53125 C 6.882812 -13.226562 6.800781 -12.945312 6.71875 -12.6875 C 6.644531 -12.4375 6.578125 -12.222656 6.515625 -12.046875 L 4.5625 -6.890625 Z M 9.921875 -6.890625 "/></g></g><g style="fill:#000000;fill-opacity:1;"><g transform="translate(284.110178, 317.632144)"><path style="stroke:none" d="M 9.234375 -8.578125 L 14.953125 -8.578125 L 14.953125 -0.640625 C 14.097656 -0.347656 13.21875 -0.132812 12.3125 0 C 11.40625 0.144531 10.390625 0.21875 9.265625 0.21875 C 7.566406 0.21875 6.132812 -0.117188 4.96875 -0.796875 C 3.800781 -1.472656 2.914062 -2.4375 2.3125 -3.6875 C 1.707031 -4.945312 1.40625 -6.445312 1.40625 -8.1875 C 1.40625 -9.875 1.738281 -11.347656 2.40625 -12.609375 C 3.070312 -13.867188 4.035156 -14.847656 5.296875 -15.546875 C 6.566406 -16.242188 8.085938 -16.59375 9.859375 -16.59375 C 10.765625 -16.59375 11.625 -16.507812 12.4375 -16.34375 C 13.257812 -16.175781 14.023438 -15.941406 14.734375 -15.640625 L 14 -13.984375 C 13.394531 -14.242188 12.726562 -14.46875 12 -14.65625 C 11.269531 -14.84375 10.519531 -14.9375 9.75 -14.9375 C 8.414062 -14.9375 7.269531 -14.660156 6.3125 -14.109375 C 5.363281 -13.554688 4.632812 -12.773438 4.125 -11.765625 C 3.625 -10.753906 3.375 -9.5625 3.375 -8.1875 C 3.375 -6.820312 3.59375 -5.628906 4.03125 -4.609375 C 4.476562 -3.597656 5.164062 -2.8125 6.09375 -2.25 C 7.03125 -1.695312 8.234375 -1.421875 9.703125 -1.421875 C 10.441406 -1.421875 11.078125 -1.460938 11.609375 -1.546875 C 12.140625 -1.628906 12.617188 -1.734375 13.046875 -1.859375 L 13.046875 -6.875 L 9.234375 -6.875 Z M 9.234375 -8.578125 "/></g></g><g style="fill:#000000;fill-opacity:1;"><g transform="translate(304.351671, 317.632144)"><path style="stroke:none" d="M 11.34375 0 L 2.234375 0 L 2.234375 -16.359375 L 11.34375 -16.359375 L 11.34375 -14.6875 L 4.140625 -14.6875 L 4.140625 -9.390625 L 10.9375 -9.390625 L 10.9375 -7.734375 L 4.140625 -7.734375 L 4.140625 -1.671875 L 11.34375 -1.671875 Z M 11.34375 0 "/></g></g><g style="fill:#000000;fill-opacity:1;"><g transform="translate(112.865222, 335.253586)"><path style="stroke:none" d="M 1.5625 0 L 1.046875 0 L 1.046875 -7.40625 L 5.09375 -7.40625 L 5.09375 -6.9375 L 1.5625 -6.9375 L 1.5625 -3.78125 L 4.90625 -3.78125 L 4.90625 -3.3125 L 1.5625 -3.3125 Z M 1.5625 0 "/></g></g><g style="fill:#000000;fill-opacity:1;"><g transform="translate(126.368874, 335.253586)"><path style="stroke:none" d="M 7.28125 -3.71875 C 7.28125 -3.15625 7.207031 -2.640625 7.0625 -2.171875 C 6.925781 -1.703125 6.71875 -1.296875 6.4375 -0.953125 C 6.164062 -0.617188 5.820312 -0.359375 5.40625 -0.171875 C 4.988281 0.00390625 4.507812 0.09375 3.96875 0.09375 C 3.40625 0.09375 2.914062 0.00390625 2.5 -0.171875 C 2.09375 -0.359375 1.75 -0.617188 1.46875 -0.953125 C 1.195312 -1.296875 0.988281 -1.703125 0.84375 -2.171875 C 0.707031 -2.640625 0.640625 -3.15625 0.640625 -3.71875 C 0.640625 -4.46875 0.765625 -5.128906 1.015625 -5.703125 C 1.273438 -6.273438 1.65625 -6.71875 2.15625 -7.03125 C 2.65625 -7.351562 3.269531 -7.515625 4 -7.515625 C 4.707031 -7.515625 5.300781 -7.363281 5.78125 -7.0625 C 6.269531 -6.757812 6.640625 -6.320312 6.890625 -5.75 C 7.148438 -5.1875 7.28125 -4.507812 7.28125 -3.71875 Z M 1.1875 -3.71875 C 1.1875 -3.050781 1.285156 -2.460938 1.484375 -1.953125 C 1.679688 -1.453125 1.988281 -1.0625 2.40625 -0.78125 C 2.820312 -0.5 3.34375 -0.359375 3.96875 -0.359375 C 4.601562 -0.359375 5.125 -0.5 5.53125 -0.78125 C 5.9375 -1.0625 6.238281 -1.453125 6.4375 -1.953125 C 6.632812 -2.453125 6.734375 -3.039062 6.734375 -3.71875 C 6.734375 -4.769531 6.5 -5.585938 6.03125 -6.171875 C 5.570312 -6.753906 4.894531 -7.046875 4 -7.046875 C 3.375 -7.046875 2.847656 -6.90625 2.421875 -6.625 C 2.003906 -6.34375 1.691406 -5.953125 1.484375 -5.453125 C 1.285156 -4.960938 1.1875 -4.382812 1.1875 -3.71875 Z M 1.1875 -3.71875 "/></g></g><g style="fill:#000000;fill-opacity:1;"><g transform="translate(142.586015, 335.253586)"><path style="stroke:none" d="M 2.984375 0 L 2.453125 0 L 2.453125 -6.9375 L 0.046875 -6.9375 L 0.046875 -7.40625 L 5.375 -7.40625 L 5.375 -6.9375 L 2.984375 -6.9375 Z M 2.984375 0 "/></g></g><g style="fill:#000000;fill-opacity:1;"><g transform="translate(156.317478, 335.253586)"><path style="stroke:none" d="M 7.28125 -3.71875 C 7.28125 -3.15625 7.207031 -2.640625 7.0625 -2.171875 C 6.925781 -1.703125 6.71875 -1.296875 6.4375 -0.953125 C 6.164062 -0.617188 5.820312 -0.359375 5.40625 -0.171875 C 4.988281 0.00390625 4.507812 0.09375 3.96875 0.09375 C 3.40625 0.09375 2.914062 0.00390625 2.5 -0.171875 C 2.09375 -0.359375 1.75 -0.617188 1.46875 -0.953125 C 1.195312 -1.296875 0.988281 -1.703125 0.84375 -2.171875 C 0.707031 -2.640625 0.640625 -3.15625 0.640625 -3.71875 C 0.640625 -4.46875 0.765625 -5.128906 1.015625 -5.703125 C 1.273438 -6.273438 1.65625 -6.71875 2.15625 -7.03125 C 2.65625 -7.351562 3.269531 -7.515625 4 -7.515625 C 4.707031 -7.515625 5.300781 -7.363281 5.78125 -7.0625 C 6.269531 -6.757812 6.640625 -6.320312 6.890625 -5.75 C 7.148438 -5.1875 7.28125 -4.507812 7.28125 -3.71875 Z M 1.1875 -3.71875 C 1.1875 -3.050781 1.285156 -2.460938 1.484375 -1.953125 C 1.679688 -1.453125 1.988281 -1.0625 2.40625 -0.78125 C 2.820312 -0.5 3.34375 -0.359375 3.96875 -0.359375 C 4.601562 -0.359375 5.125 -0.5 5.53125 -0.78125 C 5.9375 -1.0625 6.238281 -1.453125 6.4375 -1.953125 C 6.632812 -2.453125 6.734375 -3.039062 6.734375 -3.71875 C 6.734375 -4.769531 6.5 -5.585938 6.03125 -6.171875 C 5.570312 -6.753906 4.894531 -7.046875 4 -7.046875 C 3.375 -7.046875 2.847656 -6.90625 2.421875 -6.625 C 2.003906 -6.34375 1.691406 -5.953125 1.484375 -5.453125 C 1.285156 -4.960938 1.1875 -4.382812 1.1875 -3.71875 Z M 1.1875 -3.71875 "/></g></g><g style="fill:#000000;fill-opacity:1;"><g transform="translate(172.534619, 335.253586)"><path style="stroke:none" d="M 3.96875 -3.734375 L 6.6875 -3.734375 L 6.6875 -0.34375 C 6.332031 -0.1875 5.953125 -0.0703125 5.546875 0 C 5.148438 0.0625 4.722656 0.09375 4.265625 0.09375 C 3.484375 0.09375 2.820312 -0.0507812 2.28125 -0.34375 C 1.738281 -0.644531 1.328125 -1.078125 1.046875 -1.640625 C 0.773438 -2.210938 0.640625 -2.894531 0.640625 -3.6875 C 0.640625 -4.4375 0.789062 -5.097656 1.09375 -5.671875 C 1.394531 -6.253906 1.828125 -6.707031 2.390625 -7.03125 C 2.960938 -7.351562 3.640625 -7.515625 4.421875 -7.515625 C 4.828125 -7.515625 5.207031 -7.476562 5.5625 -7.40625 C 5.925781 -7.332031 6.269531 -7.222656 6.59375 -7.078125 L 6.390625 -6.609375 C 6.066406 -6.753906 5.738281 -6.863281 5.40625 -6.9375 C 5.070312 -7.019531 4.734375 -7.0625 4.390625 -7.0625 C 3.722656 -7.0625 3.148438 -6.914062 2.671875 -6.625 C 2.191406 -6.34375 1.820312 -5.945312 1.5625 -5.4375 C 1.3125 -4.9375 1.1875 -4.359375 1.1875 -3.703125 C 1.1875 -2.953125 1.304688 -2.328125 1.546875 -1.828125 C 1.796875 -1.335938 2.15625 -0.96875 2.625 -0.71875 C 3.101562 -0.476562 3.679688 -0.359375 4.359375 -0.359375 C 4.734375 -0.359375 5.066406 -0.382812 5.359375 -0.4375 C 5.660156 -0.488281 5.929688 -0.5625 6.171875 -0.65625 L 6.171875 -3.265625 L 3.96875 -3.265625 Z M 3.96875 -3.734375 "/></g></g><g style="fill:#000000;fill-opacity:1;"><g transform="translate(188.326512, 335.253586)"><path style="stroke:none" d="M 2.84375 -7.40625 C 3.425781 -7.40625 3.914062 -7.335938 4.3125 -7.203125 C 4.707031 -7.078125 5.003906 -6.867188 5.203125 -6.578125 C 5.398438 -6.285156 5.5 -5.890625 5.5 -5.390625 C 5.5 -5.015625 5.429688 -4.691406 5.296875 -4.421875 C 5.160156 -4.148438 4.972656 -3.925781 4.734375 -3.75 C 4.492188 -3.582031 4.21875 -3.457031 3.90625 -3.375 L 5.9375 0 L 5.3125 0 L 3.40625 -3.21875 L 1.5625 -3.21875 L 1.5625 0 L 1.046875 0 L 1.046875 -7.40625 Z M 2.796875 -6.953125 L 1.5625 -6.953125 L 1.5625 -3.6875 L 3.046875 -3.6875 C 3.648438 -3.6875 4.117188 -3.828125 4.453125 -4.109375 C 4.796875 -4.398438 4.96875 -4.820312 4.96875 -5.375 C 4.96875 -5.96875 4.785156 -6.378906 4.421875 -6.609375 C 4.066406 -6.835938 3.523438 -6.953125 2.796875 -6.953125 Z M 2.796875 -6.953125 "/></g></g><g style="fill:#000000;fill-opacity:1;"><g transform="translate(202.781909, 335.253586)"><path style="stroke:none" d="M 5.671875 0 L 4.671875 -2.625 L 1.5625 -2.625 L 0.53125 0 L 0 0 L 2.90625 -7.4375 L 3.390625 -7.4375 L 6.21875 0 Z M 4.5 -3.09375 L 3.484375 -5.859375 C 3.453125 -5.929688 3.414062 -6.023438 3.375 -6.140625 C 3.34375 -6.253906 3.304688 -6.375 3.265625 -6.5 C 3.222656 -6.625 3.179688 -6.738281 3.140625 -6.84375 C 3.097656 -6.726562 3.054688 -6.609375 3.015625 -6.484375 C 2.984375 -6.367188 2.945312 -6.253906 2.90625 -6.140625 C 2.875 -6.035156 2.835938 -5.941406 2.796875 -5.859375 L 1.734375 -3.09375 Z M 4.5 -3.09375 "/></g></g><g style="fill:#000000;fill-opacity:1;"><g transform="translate(217.303119, 335.253586)"><path style="stroke:none" d="M 1.5625 0 L 1.046875 0 L 1.046875 -7.40625 L 5.09375 -7.40625 L 5.09375 -6.9375 L 1.5625 -6.9375 L 1.5625 -3.78125 L 4.90625 -3.78125 L 4.90625 -3.3125 L 1.5625 -3.3125 Z M 1.5625 0 "/></g></g><g style="fill:#000000;fill-opacity:1;"><g transform="translate(230.806771, 335.253586)"><path style="stroke:none" d="M 1.046875 0 L 1.046875 -7.40625 L 1.5625 -7.40625 L 1.5625 0 Z M 1.046875 0 "/></g></g><g style="fill:#000000;fill-opacity:1;"><g transform="translate(241.71337, 335.253586)"><path style="stroke:none" d="M 5.671875 0 L 4.671875 -2.625 L 1.5625 -2.625 L 0.53125 0 L 0 0 L 2.90625 -7.4375 L 3.390625 -7.4375 L 6.21875 0 Z M 4.5 -3.09375 L 3.484375 -5.859375 C 3.453125 -5.929688 3.414062 -6.023438 3.375 -6.140625 C 3.34375 -6.253906 3.304688 -6.375 3.265625 -6.5 C 3.222656 -6.625 3.179688 -6.738281 3.140625 -6.84375 C 3.097656 -6.726562 3.054688 -6.609375 3.015625 -6.484375 C 2.984375 -6.367188 2.945312 -6.253906 2.90625 -6.140625 C 2.875 -6.035156 2.835938 -5.941406 2.796875 -5.859375 L 1.734375 -3.09375 Z M 4.5 -3.09375 "/></g></g><g style="fill:#000000;fill-opacity:1;"><g transform="translate(256.23458, 335.253586)"><path style="stroke:none" d="M 5.125 -1.90625 C 5.125 -1.46875 5.007812 -1.097656 4.78125 -0.796875 C 4.5625 -0.492188 4.257812 -0.269531 3.875 -0.125 C 3.5 0.0195312 3.066406 0.09375 2.578125 0.09375 C 2.273438 0.09375 2 0.078125 1.75 0.046875 C 1.507812 0.0234375 1.289062 -0.00390625 1.09375 -0.046875 C 0.90625 -0.0976562 0.726562 -0.15625 0.5625 -0.21875 L 0.5625 -0.734375 C 0.820312 -0.640625 1.125 -0.550781 1.46875 -0.46875 C 1.820312 -0.394531 2.203125 -0.359375 2.609375 -0.359375 C 2.992188 -0.359375 3.332031 -0.410156 3.625 -0.515625 C 3.925781 -0.628906 4.160156 -0.800781 4.328125 -1.03125 C 4.503906 -1.257812 4.59375 -1.546875 4.59375 -1.890625 C 4.59375 -2.191406 4.519531 -2.4375 4.375 -2.625 C 4.238281 -2.820312 4.023438 -2.988281 3.734375 -3.125 C 3.453125 -3.269531 3.09375 -3.414062 2.65625 -3.5625 C 2.351562 -3.664062 2.078125 -3.773438 1.828125 -3.890625 C 1.578125 -4.015625 1.363281 -4.148438 1.1875 -4.296875 C 1.007812 -4.453125 0.875 -4.640625 0.78125 -4.859375 C 0.695312 -5.078125 0.65625 -5.335938 0.65625 -5.640625 C 0.65625 -6.046875 0.753906 -6.382812 0.953125 -6.65625 C 1.160156 -6.9375 1.441406 -7.148438 1.796875 -7.296875 C 2.160156 -7.441406 2.566406 -7.515625 3.015625 -7.515625 C 3.367188 -7.515625 3.703125 -7.476562 4.015625 -7.40625 C 4.335938 -7.34375 4.644531 -7.25 4.9375 -7.125 L 4.765625 -6.671875 C 4.460938 -6.796875 4.160156 -6.890625 3.859375 -6.953125 C 3.566406 -7.015625 3.273438 -7.046875 2.984375 -7.046875 C 2.640625 -7.046875 2.332031 -6.992188 2.0625 -6.890625 C 1.789062 -6.785156 1.570312 -6.628906 1.40625 -6.421875 C 1.25 -6.210938 1.171875 -5.953125 1.171875 -5.640625 C 1.171875 -5.316406 1.242188 -5.054688 1.390625 -4.859375 C 1.535156 -4.660156 1.742188 -4.492188 2.015625 -4.359375 C 2.296875 -4.234375 2.617188 -4.109375 2.984375 -3.984375 C 3.421875 -3.828125 3.796875 -3.664062 4.109375 -3.5 C 4.429688 -3.34375 4.679688 -3.140625 4.859375 -2.890625 C 5.035156 -2.640625 5.125 -2.3125 5.125 -1.90625 Z M 5.125 -1.90625 "/></g></g><g clip-rule="nonzero" clip-path="url(#1b334b1547)"><path style=" stroke:none;fill-rule:nonzero;fill:#000000;fill-opacity:1;" d="M 18.15625 211.492188 C 35.9375 125.1875 114.976562 71.460938 200.925781 86.917969 C 116.539062 74.519531 40.410156 128.359375 25.789062 212.941406 Z M 18.15625 211.492188 "/></g><g clip-rule="nonzero" clip-path="url(#db14af6212)"><path style=" stroke:none;fill-rule:nonzero;fill:#000000;fill-opacity:1;" d="M 12.308594 181.351562 C 44.804688 99.441406 131.972656 60.257812 213.929688 90.402344 C 132.980469 63.539062 48.664062 103.339844 19.574219 184.101562 Z M 12.308594 181.351562 "/></g><g clip-rule="nonzero" clip-path="url(#aca9545343)"><path style=" stroke:none;fill-rule:nonzero;fill:#000000;fill-opacity:1;" d="M 11.785156 150.652344 C 58.011719 75.628906 150.65625 52.175781 226.136719 96.09375 C 151.085938 55.582031 61.132812 80.136719 18.464844 154.621094 L 11.789062 150.652344 Z M 11.785156 150.652344 "/></g><g clip-rule="nonzero" clip-path="url(#17675a97be)"><path style=" stroke:none;fill-rule:nonzero;fill:#000000;fill-opacity:1;" d="M 16.597656 120.324219 C 75.152344 54.46875 170.464844 47.460938 237.175781 103.816406 C 170.285156 50.890625 77.4375 59.453125 22.480469 125.394531 L 16.589844 120.324219 Z M 16.597656 120.324219 "/></g><g clip-rule="nonzero" clip-path="url(#2cc5f3112f)"><path style=" stroke:none;fill-rule:nonzero;fill:#000000;fill-opacity:1;" d="M 26.605469 91.292969 C 95.707031 36.609375 190.789062 46.257812 246.699219 113.34375 C 190.03125 49.601562 97.105469 41.914062 31.535156 97.308594 L 26.613281 91.292969 Z M 26.605469 91.292969 "/></g><g clip-rule="nonzero" clip-path="url(#44c85dae12)"><path style=" stroke:none;fill-rule:nonzero;fill:#000000;fill-opacity:1;" d="M 41.503906 64.441406 C 119.050781 22.585938 211.011719 48.597656 254.417969 124.375 C 209.667969 51.761719 119.488281 28.050781 45.292969 71.222656 L 41.492188 64.441406 Z M 41.503906 64.441406 "/></g><g clip-rule="nonzero" clip-path="url(#2bff3e7117)"><path style=" stroke:none;fill-rule:nonzero;fill:#000000;fill-opacity:1;" d="M 60.835938 40.585938 C 144.472656 12.828125 230.519531 54.417969 260.109375 136.578125 C 228.65625 57.300781 143.957031 18.292969 63.398438 47.925781 L 60.832031 40.585938 Z M 60.835938 40.585938 "/></g><g clip-rule="nonzero" clip-path="url(#43f1573809)"><path style=" stroke:none;fill-rule:nonzero;fill:#000000;fill-opacity:1;" d="M 84.015625 20.449219 C 171.203125 7.640625 248.71875 63.539062 263.59375 149.585938 C 246.382812 66.050781 169.753906 12.929688 85.269531 28.121094 L 84.027344 20.449219 Z M 84.015625 20.449219 "/></g><g clip-rule="nonzero" clip-path="url(#77f56f5eb3)"><path style=" stroke:none;fill-rule:nonzero;fill:#000000;fill-opacity:1;" d="M 110.34375 4.644531 C 198.429688 7.167969 265.0625 75.675781 264.769531 163.003906 C 262.328125 77.75 196.085938 12.128906 110.246094 12.417969 Z M 110.34375 4.644531 "/></g><g clip-rule="nonzero" clip-path="url(#5833ec41d7)"><path style=" stroke:none;fill-rule:nonzero;fill:#000000;fill-opacity:1;" d="M 139.015625 -6.347656 C 225.324219 11.433594 279.046875 90.472656 263.59375 176.421875 C 275.992188 92.039062 222.152344 15.910156 137.570312 1.289062 L 139.023438 -6.347656 Z M 139.015625 -6.347656 "/></g><g clip-rule="nonzero" clip-path="url(#feae2b69b4)"><path style=" stroke:none;fill-rule:nonzero;fill:#000000;fill-opacity:1;" d="M 169.160156 -12.195312 C 251.070312 20.300781 290.253906 107.46875 260.109375 189.425781 C 286.972656 108.480469 247.167969 24.160156 166.40625 -4.929688 L 169.152344 -12.195312 Z M 169.160156 -12.195312 "/></g><g clip-rule="nonzero" clip-path="url(#f9714283ad)"><path style=" stroke:none;fill-rule:nonzero;fill:#000000;fill-opacity:1;" d="M 199.859375 -12.71875 C 274.882812 33.507812 298.335938 126.152344 254.417969 201.632812 C 294.929688 126.582031 270.375 36.628906 195.890625 -6.039062 L 199.851562 -12.714844 Z M 199.859375 -12.71875 "/></g><g clip-rule="nonzero" clip-path="url(#9cf89dea02)"><path style=" stroke:none;fill-rule:nonzero;fill:#000000;fill-opacity:1;" d="M 230.199219 -7.90625 C 296.050781 50.648438 303.058594 145.960938 246.703125 212.671875 C 299.632812 145.792969 291.066406 52.945312 225.128906 -2.011719 L 230.199219 -7.914062 Z M 230.199219 -7.90625 "/></g><g clip-rule="nonzero" clip-path="url(#6cc599688d)"><path style=" stroke:none;fill-rule:nonzero;fill:#000000;fill-opacity:1;" d="M 259.214844 2.101562 C 313.898438 71.203125 304.25 166.285156 237.164062 222.195312 C 300.90625 165.527344 308.59375 72.601562 253.195312 7.03125 L 259.214844 2.109375 Z M 259.214844 2.101562 "/></g><g clip-rule="nonzero" clip-path="url(#f6b2ea5df5)"><path style=" stroke:none;fill-rule:nonzero;fill:#000000;fill-opacity:1;" d="M 286.078125 17 C 327.9375 94.546875 301.921875 186.507812 226.148438 229.914062 C 298.757812 185.167969 322.46875 94.992188 279.300781 20.800781 L 286.066406 16.988281 Z M 286.078125 17 "/></g><g clip-rule="nonzero" clip-path="url(#dbe1d0fc14)"><path style=" stroke:none;fill-rule:nonzero;fill:#000000;fill-opacity:1;" d="M 309.933594 36.332031 C 337.6875 119.96875 296.101562 206.015625 213.941406 235.605469 C 293.21875 204.152344 332.226562 119.460938 302.597656 38.898438 L 309.933594 36.328125 Z M 309.933594 36.332031 "/></g><g clip-rule="nonzero" clip-path="url(#82109af0d9)"><path style=" stroke:none;fill-rule:nonzero;fill:#000000;fill-opacity:1;" d="M 330.054688 59.511719 C 342.863281 146.699219 286.964844 224.214844 200.914062 239.089844 C 284.449219 221.878906 337.574219 145.25 322.382812 60.765625 L 330.046875 59.523438 Z M 330.054688 59.511719 "/></g><g clip-rule="nonzero" clip-path="url(#39f2888c3d)"><path style=" stroke:none;fill-rule:nonzero;fill:#000000;fill-opacity:1;" d="M 345.867188 85.839844 C 343.34375 173.925781 274.835938 240.558594 187.511719 240.265625 C 272.765625 237.824219 338.386719 171.582031 338.097656 85.742188 L 345.871094 85.839844 Z M 345.867188 85.839844 "/></g><g clip-rule="nonzero" clip-path="url(#87647be34f)"><path style=" stroke:none;fill-rule:nonzero;fill:#000000;fill-opacity:1;" d="M 356.851562 114.511719 C 339.070312 200.820312 260.03125 254.542969 174.082031 239.089844 C 258.464844 251.488281 334.59375 197.648438 349.214844 113.066406 L 356.859375 114.519531 Z M 356.851562 114.511719 "/></g><g clip-rule="nonzero" clip-path="url(#595e203026)"><path style=" stroke:none;fill-rule:nonzero;fill:#000000;fill-opacity:1;" d="M 362.714844 144.65625 C 330.21875 226.566406 243.050781 265.75 161.09375 235.605469 C 242.039062 262.46875 326.359375 222.664062 355.449219 141.902344 L 362.71875 144.648438 Z M 362.714844 144.65625 "/></g><g clip-rule="nonzero" clip-path="url(#16a00d7142)"><path style=" stroke:none;fill-rule:nonzero;fill:#000000;fill-opacity:1;" d="M 363.222656 175.355469 C 316.992188 250.378906 224.347656 273.832031 148.867188 229.914062 C 223.921875 270.425781 313.871094 245.871094 356.539062 171.386719 L 363.214844 175.347656 Z M 363.222656 175.355469 "/></g><g clip-rule="nonzero" clip-path="url(#54a49fc234)"><path style=" stroke:none;fill-rule:nonzero;fill:#000000;fill-opacity:1;" d="M 358.410156 205.695312 C 299.855469 271.546875 204.542969 278.554688 137.832031 222.199219 C 204.710938 275.128906 297.558594 266.5625 352.515625 200.625 L 358.402344 205.695312 Z M 358.410156 205.695312 "/></g><g clip-rule="nonzero" clip-path="url(#6354724080)"><path style=" stroke:none;fill-rule:nonzero;fill:#000000;fill-opacity:1;" d="M 348.417969 234.710938 C 279.316406 289.394531 184.234375 279.746094 128.320312 212.660156 C 184.992188 276.402344 277.917969 284.089844 343.488281 228.691406 L 348.40625 234.710938 Z M 348.417969 234.710938 "/></g><g clip-rule="nonzero" clip-path="url(#4d589855ec)"><path style=" stroke:none;fill-rule:nonzero;fill:#000000;fill-opacity:1;" d="M 333.5 261.574219 C 255.953125 303.433594 163.992188 277.417969 120.585938 201.644531 C 165.332031 274.253906 255.507812 297.964844 329.703125 254.796875 L 333.5 261.5625 Z M 333.5 261.574219 "/></g><g clip-rule="nonzero" clip-path="url(#aea49a1763)"><path style=" stroke:none;fill-rule:nonzero;fill:#000000;fill-opacity:1;" d="M 314.171875 285.429688 C 230.535156 313.183594 144.488281 271.597656 114.898438 189.4375 C 146.351562 268.714844 231.042969 307.722656 311.605469 278.09375 L 314.175781 285.429688 Z M 314.171875 285.429688 "/></g><g clip-rule="nonzero" clip-path="url(#808ca2bb70)"><path style=" stroke:none;fill-rule:nonzero;fill:#000000;fill-opacity:1;" d="M 291 305.550781 C 203.8125 318.359375 126.296875 262.460938 111.421875 176.410156 C 128.632812 259.945312 205.261719 313.070312 289.742188 297.878906 L 290.996094 305.542969 Z M 291 305.550781 "/></g><g clip-rule="nonzero" clip-path="url(#c3cd7e60bf)"><path style=" stroke:none;fill-rule:nonzero;fill:#000000;fill-opacity:1;" d="M 264.660156 321.363281 C 176.585938 318.839844 109.953125 250.328125 110.246094 163.003906 C 112.6875 248.257812 178.929688 313.878906 264.769531 313.589844 L 264.660156 321.367188 Z M 264.660156 321.363281 "/></g><g clip-rule="nonzero" clip-path="url(#990e6a345f)"><path style=" stroke:none;fill-rule:nonzero;fill:#000000;fill-opacity:1;" d="M 235.996094 332.347656 C 149.6875 314.566406 95.964844 235.527344 111.417969 149.578125 C 99.019531 233.960938 152.855469 310.089844 237.441406 324.710938 L 235.992188 332.355469 Z M 235.996094 332.347656 "/></g><g clip-rule="nonzero" clip-path="url(#d1759b5eb9)"><path style=" stroke:none;fill-rule:nonzero;fill:#000000;fill-opacity:1;" d="M 205.855469 338.210938 C 123.945312 305.714844 84.761719 218.546875 114.90625 136.589844 C 88.042969 217.535156 127.847656 301.855469 208.609375 330.945312 L 205.855469 338.214844 Z M 205.855469 338.210938 "/></g><g clip-rule="nonzero" clip-path="url(#903b293df8)"><path style=" stroke:none;fill-rule:nonzero;fill:#000000;fill-opacity:1;" d="M 175.15625 338.71875 C 100.132812 292.488281 76.679688 199.84375 120.597656 124.363281 C 80.085938 199.417969 104.640625 289.367188 179.125 332.035156 L 175.15625 338.710938 Z M 175.15625 338.71875 "/></g><g clip-rule="nonzero" clip-path="url(#14d236aada)"><path style=" stroke:none;fill-rule:nonzero;fill:#000000;fill-opacity:1;" d="M 144.828125 333.90625 C 78.972656 275.351562 71.964844 180.039062 128.320312 113.328125 C 75.390625 180.207031 83.957031 273.054688 149.898438 328.011719 L 144.828125 333.898438 Z M 144.828125 333.90625 "/></g><g clip-rule="nonzero" clip-path="url(#ac8d43240e)"><path style=" stroke:none;fill-rule:nonzero;fill:#000000;fill-opacity:1;" d="M 115.796875 323.914062 C 61.113281 254.808594 70.761719 159.722656 137.847656 103.816406 C 74.105469 160.488281 66.417969 253.414062 121.8125 318.984375 L 115.796875 323.902344 Z M 115.796875 323.914062 "/></g><g clip-rule="nonzero" clip-path="url(#4121a6b8f1)"><path style=" stroke:none;fill-rule:nonzero;fill:#000000;fill-opacity:1;" d="M 88.945312 308.996094 C 47.089844 231.449219 73.101562 139.488281 148.875 96.082031 C 76.265625 140.828125 52.554688 231.003906 95.726562 305.199219 Z M 88.945312 308.996094 "/></g><g clip-rule="nonzero" clip-path="url(#d4003dc495)"><path style=" stroke:none;fill-rule:nonzero;fill:#000000;fill-opacity:1;" d="M 65.089844 289.667969 C 37.332031 206.03125 78.921875 119.984375 161.082031 90.394531 C 81.804688 121.847656 42.792969 206.539062 72.425781 287.101562 L 65.089844 289.671875 Z M 65.089844 289.667969 "/></g><g clip-rule="nonzero" clip-path="url(#5bd63a04c4)"><path style=" stroke:none;fill-rule:nonzero;fill:#000000;fill-opacity:1;" d="M 44.953125 266.496094 C 32.144531 179.308594 88.042969 101.792969 174.089844 86.917969 C 90.554688 104.128906 37.433594 180.757812 52.625 265.242188 L 44.953125 266.492188 Z M 44.953125 266.496094 "/></g><g clip-rule="nonzero" clip-path="url(#e19601e190)"><path style=" stroke:none;fill-rule:nonzero;fill:#000000;fill-opacity:1;" d="M 29.148438 240.15625 C 31.671875 152.070312 100.179688 85.4375 187.507812 85.734375 C 102.253906 88.175781 36.632812 154.417969 36.921875 240.257812 L 29.148438 240.167969 Z M 29.148438 240.15625 "/></g></g></svg>